<svg xmlns="http://www.w3.org/2000/svg" width="345" height="40"><path fill="#FFD182" fill-rule="evenodd" d="M280.461 28.246c-1.2-.56-1.2-.56-2.56-.12.84.76 1.68.6 2.56.12m-149.24 3c-.92-.24-1.64-.8-2.32.12.76.48 1.4 1.48 2.32-.12m-27.52-18.2c-1.2 1.68-1.2 1.68-.84 3.2.56-.96.84-1.76.84-3.2m115.72-4.96c-1.12-.56-2-.56-2.44.76-.12.28.2.68.68.76.56-.36 1.28-.64 1.76-1.52m-105.92 3.36c.84-.28 1.52-.64 1.92-1.48-.64-.28-.56-1.24-1.36-1.28-.56.84-.84 1.72-.56 2.76m91.68 5.72c2.28-.84 1.04-2.2.96-3.32-.92.84-1.48 1.76-.96 3.32m-94.96-2.84c-.04-1.48-.04-2.96.28-4.4-1.44 1.32-1.56 2.8-.28 4.4m49.64-4.28c-.28 1.68-.44 2.72.2 3.84 2.24-1.24 1.24-2.24-.2-3.84m-32.72 18.8c1.48-.04 3 .68 4.68-.04-1.72-.68-3.2-1.04-4.68.04m9.28 5.2c1.8.4 1.8.4 3.6.08-.36-.84-1.04-1.32-1.88-1.68-.52.48-1.04.96-1.72 1.6m145.6-6.28c1.8-.2 2.16 2.68 4.16 2.04-1.28-.92-1.92-3-4.16-2.04m-125.04-16.04c-.64 1.52-1.64 3.08-.48 5.04 2.28-1.48-.24-3.52.48-5.04m57.08-2.48c-1.32 1.52-1.32 1.52-1.12 3.88 2.28-1 2.36-1.2 1.12-3.88m-192.48 3.28c.36-1.52.68-3.04 1.04-4.64-2.32.64-2.64 1.72-1.04 4.64m85.04 4.68c-.16-2.16.44-4.28.2-6.44-.52 2.12-2.2 4.16-.2 6.44m-52.72-7.08c-.88 2.04-1.92 4.12-.32 6.52 2.44-2.24 0-4.44.32-6.52m251.56 9.48c4.48-.52 4.92-.92 5.4-4.72-1.76 1.56-3.36 2.92-5.4 4.72m-96.44-2.84c1.16-1.2 1.8-4 1.56-6.24-1.96 1.08-2.36 2.56-1.56 6.24m74.28 7.56c1.52 1.68 3.04 3.36 5.2 4.56-.64-3.48-1.56-4.28-5.2-4.56m-125.76-5.64c4.8-.24 5.96-1.24 6.48-5.24-2.36 1.32-4.2 3.12-6.48 5.24m97.76-9.12c-1.72 1.52-3.52 2.4-3.16 4.84.2 1.76.2 1.8 1.84 2.44.4-2.28 1.48-4.44 1.32-7.28m-113.4 22.8c-1.84-3.56-4.88-5.56-8.52-6.8 2.16 3.08 5.08 5.28 8.52 6.8m45.72 1.6c-2.48-3.04-6.12-4.2-8.44-7.28-.48 3.76 3.16 6.84 8.44 7.28m-173.8-20.44c-.48 1.72-.28 3.24.56 4.84 1.48-1.24 2.8-2.32 4.24-3.56-1.92-1.84.88-3.68-.24-5.64-.76-.08-1.56.12-1.92.8-.88 1.68-.32 3.44.16 5.24-1.96.72-2.24-.56-2.8-1.68m224.4 20.12c-1.88-3.2-3.52-5.88-6.12-8.52-.2 2.04-1.32 3.32-.56 5.12 1.88 1.16 3.8 2.52 6.68 3.4m-218.52-16.56c4.12-1.96 9-2.92 10.48-8.84-4.24 2.6-7.52 5.52-10.48 8.84m191.76 1.24c2.52-.32 4.88-1.2 7.4-1.4.56-2.12.88-4.12.96-6.88-3 3-6.04 5.08-8.36 8.28m-103.96 1.28c8.16-1.08 9.6-2.36 9.28-8.12-3.2 2.44-6.4 4.76-9.28 8.12m-76.6 5.4c-1.56 3.84-1.56 5.04.6 6.2 2.64 1.44 5.24 3.04 9 3.04-3.48-3.2-7.04-5.56-9.6-9.24m289.68-1.04c3.72 1.8 11.36-.28 14.84-4.08-4.88.8-9.6.84-14.2 1.84-.48.6-.6 1.32-.64 2.24M66.341 6.086c-4.52 3.08-8.52 6.64-10.84 12.24 4.84-.52 10.28-6.8 10.84-12.24m5.92 22.28c3.08 3.8 7.92 6.6 11.92 6.8-2.24-1.68-3.2-3.92-4.96-5.68-1.56-1.52-4-3-3.96-6.36-1.6 1.88-2.08 3.6-3 5.24m195.52-21.2c-.2-.12-.36-.2-.56-.32-3.2 4.16-7.76 7.12-10.48 12.52 3.4-.88 6.2-1.56 8.96-2.36.72-.2 1.2-1 1.28-1.76.28-2.72.52-5.4.8-8.08m-241.64-.92c-1.36.28-2.2.96-1.88 2.52.08.4.24.72.76.84.72.08 1.28-.4 1.76-1.08-.2-.72 0-1.6-.64-2.28 3.8.68 3.8.68 5.72-1.72-2.12.24-3.68 1.8-5.72 1.72m109.48 17.76c3.52 1.96 6.44 4.56 8.76 7.88.72 1.04 1.92 1.72 3.56 1.8-.52 1.24-1 2.36.96 2.84-1.08.72-1.72 1.16-2.52 1.68-1.28-.72-2.64-.76-4.08-.6-.8.12-1.76-.08-2.48-.44-2.6-1.24-5.36-1.8-8.12-2.48-2.28-.6-4.2-1.72-5.72-3.52-2-2.44-1.36-4.88.16-7.6-14.56-.16-28.68-.36-43.44-.52 2.4 2.44 4 4.96 4.6 7.8.52 2.32 1.48 4 3.44 5.32 1.04.68.96 1.96.76 3.12-1.88 1.32-3.44-.16-5-.72-2.96-1.04-5.76-2.44-8.68-3.52-2.68-1-4.6-2.92-6.72-4.68-1.08-.88-.92-1.96-.44-3.08.6-1.36 1.4-2.68 1.64-4.56-12.4-.32-24.68-1.08-37-.52 1.6.68 3.44.72 4.36 2.24.8 1.28 1.76 2.64 1.64 4.48 2.84.64 2.76 3.88 4.96 5.12-2.28 3.96-2.52 4-6.56 2.28-2.32-1-4.96-1.28-7.24-2.44-.92-.48-1.92-.84-2.76-1.44-1.6-1.16-2.6-2.48-2-4.8.36-1.64 1.08-3.48.24-5.48-2.6-.4-5.24-.16-7.84-.08-4.8.12-9.6.24-14.4.48-1.96.08-3.32-1.2-5.04-1.68-.88-.24-.84-1.16 0-2.08 3.6.56 7.36 1.8 11.32.96.2-.48-.24-1.08-.28-1.76-.52-8.88.32-9.6 7.72-11.4 4.32-1 8.6-2.32 12.6-4.32 2.16-1.08 4.32-1.16 6.8.84-5 1.44-6.28 5.64-8.24 9.36-.52 1-1.24 1.96-2.4 2.32-3.24 1.12-5.72 3.6-8.96 4.92 10.92-.12 21.8.52 32.72.4.52-1.4-.28-2.4-.52-3.44-1.44-5.32.8-9.88 6.4-11.28 4.4-1.08 8.72-2.48 12.56-5 .6-.4 1.2-.52 1.88-.24.24 2.56-7.76 15.2-12.68 19.76 14.56.2 28.68.4 42.72.6.32-.88-.04-1.36-.4-1.8-2.72-3.36-.68-7.88 3.4-9.24 3.96-1.32 7.92-2.48 11.92-3.76 1.08-.32 2.16-.68 3.2-1.08.96-.44 1.64-.24 2.08.88-1.8 3.48-4.04 6.88-4.44 11.04-.28 2.72-2.72 3.04-4.64 4.04 12.48.56 24.96.68 37.52.48.4-1.96-.32-3.68.2-5.48.64-2.4 1.8-4.04 3.92-5.2 3.96-2.16 8.32-3.04 12.64-4.12 1.04-.28 2.28-.16 3.36 1-4.04 3.2-4.4 8.68-7.8 12.36-.68.88-2.04.12-2.92 1.48 14.52-.08 28.84-.16 43-.24.52-1.08 0-1.76-.08-2.52-.6-4.48 1.04-7.52 5.28-9.16 4.44-1.68 8.92-3.16 13.4-4.72.6-.2 1.28-.32 2.36.4-.92 4.24-3.56 8.24-3.36 12.72-2.2 2.52-5.68.88-7.84 3.24 12.8-.44 25.6-.84 38.52-1.28 0-1.68-1.12-2.88-1.28-4.4-.24-2.48.36-4.4 2.44-5.96 2.32-1.76 5-2.6 7.72-3.4 2.64-.8 5.28-1.44 7.28-3.6.72-.8 1.76-1.2 2.8.04-1.2 3.8-1.24 7.88-1.8 11.88-.44 3.12-2.4 4.44-5.76 5.04 2.52.56 33.88.6 36.48.2 1.88-2.68 2.96-5.88 5.52-8.12 1.52-1.36 3.12-2.2 5.08-2.36 1.84-.12 3.56-.44 4.68-1.92 2 .12 3.12.76 2.64 3.04-3.96 1.68-3.68 6.08-5.72 9.16 1.84 1 6.12.92 7.28-.24 4.6-4.76 10-5 15.72-2.88 2.48.92 4.88 1.96 7.6 1.84 1.08-.04 2.16.16 1.96 1.64-.4.8-1.12.72-1.76.76-3.76.32-7.04 2.04-10.28 3.8-2.88 1.52-5.92 2.44-9.24 2.48-3.36 0-3.48.08-5-3.76-10.92-1.2-22.16-1.2-33.52-.76.92.4 1.8.84 2.72 1.24 1.52.64 2.56 1.76 2.92 3.28.68 2.68 1.52 5.24 3.56 7.28.44.48.56 1.2.04 2.16-3.8-1.48-7.88-1.84-11.88-2.56-.92-.16-1.8-.64-2.6-1.16-3.76-2.24-4.44-4.4-2.76-8.56.16-.44.32-.88.48-1.28-2.44-1.16-32.76-1.12-39.96.04 5.08 4.04 6.72 9 4.72 15.04-.84.76-1.76.4-2.88.32-.56-3.08-3.44-3.52-5.64-4.52-4.24-1.88-4.88-3.56-3.04-8.36.28-.68.88-1.28.56-2.52-14.68-.52-29.44.48-44.32.84 3.84 2.88 6.4 6.36 6.92 11.16.12 1.04 1.48 1.16 1.84 2.16-.52 1.12-1.04 2.28-1.56 3.36-1.92.24-3.12-1.2-4.04-2.12-1.24-1.28-2.6-1.92-4.12-2.36-2.04-.56-3.84-1.56-5.68-2.52-2.32-1.2-3.36-3.2-3.24-5.8.04-1.16.68-2.2.2-3.96-13.52.04-27.16.04-40.8.08-.08.24-.2.48-.28.72"/></svg>